PathFileType	4	(X/Y/Z)	Patient4_TMGait_0pt6_01_left_24.trc.trc
DataRate	CameraRate	NumFrames	NumMarkers	Units	OrigDataRate	OrigDataStartFrame	OrigNumFrames
81.395348837209	81.395348837209	4	33	mm	81.395348837209	53	       141
Frame#	Time	Sacral			L.Shoulder			Chest			R.Shoulder			Neck			R.ASIS			L.ASIS			R.Thigh.Superior			R.Thigh.Lateral			R.Thigh.Inferior			R.Patella			L.Thigh.Superior			L.Thigh.Lateral			L.Thigh.Inferior			L.Patella			L.Shank.Superior			L.Shank.Lateral			L.Shank.Inferior			R.Shank.Superior			R.Shank.Lateral			R.Shank.Inferior			R.Heel			R.Midfoot.Superior			R.Midfoot.Lateral			R.Toe			L.Heel			L.Midfoot.Lateral			L.Midfoot.Superior			L.Toe			L.Elbow			L.Wrist			R.Elbow			R.Wrist			
		X1	Y1	Z1	X2	Y2	Z2	X3	Y3	Z3	X4	Y4	Z4	X5	Y5	Z5	X6	Y6	Z6	X7	Y7	Z7	X8	Y8	Z8	X9	Y9	Z9	X10	Y10	Z10	X11	Y11	Z11	X12	Y12	Z12	X13	Y13	Z13	X14	Y14	Z14	X15	Y15	Z15	X16	Y16	Z16	X17	Y17	Z17	X18	Y18	Z18	X19	Y19	Z19	X20	Y20	Z20	X21	Y21	Z21	X22	Y22	Z22	X23	Y23	Z23	X24	Y24	Z24	X25	Y25	Z25	X26	Y26	Z26	X27	Y27	Z27	X28	Y28	Z28	X29	Y29	Z29	X30	Y30	Z30	X31	Y31	Z31	X32	Y32	Z32	X33	Y33	Z33	

53	29.828857142857	689.656952721591	1008.782952011417	463.211248341191	858.543576949853	1435.944155524881	277.885287782531	958.685550850551	1372.977437120221	442.704510844028	869.214836399715	1446.537630124797	612.796205673889	839.750485029386	1500.545567222322	430.036410833070	913.541321020900	951.241513148986	584.458933854788	908.535919930441	968.886008730378	309.825508413187	1002.871161782240	783.907732876763	556.912707644265	965.961490705283	661.223115273161	629.628615403888	1060.322526434419	625.402350754246	553.847966837967	1080.713201272458	509.592194260622	576.097364800089	947.099395353407	751.938500082077	339.077479125990	850.818504414516	640.086273479879	282.934250956637	931.073285250489	559.296709135704	345.427836714062	927.445555111204	491.750544148136	356.705529357088	904.710880154313	421.026811135056	350.562692630126	817.324901675630	302.353509881441	306.405898069292	875.941757592491	195.557127430484	379.093935959336	1001.488052779648	435.424275012511	576.993684928817	875.252049001546	400.168780340962	629.501754664232	858.518002343970	293.462132296967	577.251122431160	656.474811992151	239.075351800930	535.186664465908	820.009603736987	176.024505177375	586.058176574888	709.182456348117	179.740988616395	612.941273246034	880.246828838705	63.969502878528	620.508859994948	753.992525138577	37.862343698028	431.913132489741	825.026465103724	35.151215462938	347.960508029061	908.809234443239	96.648047842982	370.574528962580	1036.269690245324	45.695491145225	338.736586496887	905.641882742798	1088.725282024767	149.388741021287	1053.232905137570	872.850115404774	147.934733758737	811.225307250236	1099.840899412701	725.945749515896	886.251442517577	849.529533662339	729.352527022172	
54	29.841142857143	689.322676112477	1008.869899574914	462.177435994857	859.782189715638	1436.714544690901	278.146825097464	958.857396287180	1373.269337309982	443.368919829877	868.433195328320	1446.318668308790	613.122881091354	840.202230104207	1500.850092057903	430.439034619940	913.161755542025	952.040068107144	584.100341389874	909.226371869143	969.340158258269	309.273136446293	1004.538686003009	787.124085705318	555.932757958126	970.080929017193	663.925794096828	629.041748001417	1064.446354171311	629.472135423147	552.757901053734	1087.331174545715	514.666440153088	575.114707185214	945.483674933033	751.120541510990	339.003165600877	847.800867761041	640.139843909595	282.678243299623	926.785068145959	558.509545459480	345.416065482419	922.353722580362	491.091493271182	356.852528161084	899.373745703996	420.650818977392	350.687550695118	811.553416007487	302.437044084117	306.383133584246	869.347602945171	195.365413713080	379.256177580421	1010.828645916343	438.251434912679	576.625498294488	886.601631230615	397.811740601968	630.030955753352	874.037665909342	290.327480041774	578.013414984259	674.202929194602	227.465377895535	537.470123178052	840.540914490650	171.228885333259	587.136895632058	729.839256901598	170.323225765509	614.846980211313	905.564828552568	61.714879378686	621.122143583870	746.540105201796	37.883357326065	431.892977985783	817.613278765425	35.166103694622	347.951034873644	901.447961477981	96.590023131310	370.580804244153	1028.874077021693	45.539926020046	338.666220211338	912.195295113198	1091.346949767128	147.707576069384	1069.148889690914	882.047821716940	145.899472569498	802.898826040370	1100.671771776027	724.165196548532	862.744550048324	846.042917268455	730.941553419276	
55	29.853428571429	688.990000689375	1008.890214223523	461.201222703018	861.118641630128	1437.396709200693	278.528872496750	959.121752059825	1373.418480303801	444.132165745940	867.776327048334	1445.983641761599	613.548388010115	840.741910344779	1501.042644001486	430.966395957552	912.726230668467	952.645914050131	583.829506470655	909.837308082821	969.612293566914	308.836830738708	1005.813894578360	789.831281656092	555.167289000966	973.411460167029	666.202756693241	628.558574628559	1067.657345076296	632.877647224715	551.778975230741	1092.833928828128	519.330319010407	574.266512940450	943.824729550297	750.218092862570	339.111016472934	844.877380704080	640.130747608106	282.461115649043	922.504749983503	557.689873367457	345.549307626003	917.261162866529	490.407637763128	357.093885595889	894.041060196191	420.239850002986	350.886237717466	805.833580911204	302.476745389110	306.370745479482	862.757221226126	195.147890738933	379.483162975762	1019.424445500974	440.667755813219	576.406474942065	897.678360875842	394.578217507272	630.747006463091	889.845787460524	286.445788867792	578.984211293953	692.956691852895	214.288505505174	539.988855504452	861.996626565723	165.755927715619	588.453709120760	751.660926382562	159.762652882254	617.026155274463	932.173929661063	59.280559676916	622.029165166384	739.095714255603	37.887907230398	431.880682191722	810.195682461636	35.173144941439	347.951376064051	894.078682485719	96.532061853609	370.617235510074	1021.472364800170	45.416505753137	338.614142831870	918.101703041905	1093.840683277257	146.201889377318	1084.330442163778	891.674841099550	144.232866428569	794.803394967822	1101.716949085977	722.738133642161	840.307068443530	844.015187496111	732.447383415469	
56	29.865714285714	688.679349820164	1008.850345896991	460.277740170860	862.559917243403	1437.970343761108	279.025056593016	959.486901244325	1373.411668445397	444.989742548457	867.255568821515	1445.533656045174	614.067494544971	841.377884002618	1501.118488117159	431.599808627038	912.244533129549	953.041687128584	583.649444779186	910.338700535631	969.679364566851	308.533041147448	1006.677661481202	791.972813920740	554.599096158877	975.913101657638	667.999004915342	628.191987987192	1069.921144187522	635.549859339130	550.926002160229	1097.186232067411	523.515797578444	573.573383670198	942.149755658292	749.228640236507	339.403071499204	842.049658345412	640.061896471805	282.272115979737	918.231391675986	556.834856489198	345.809386356621	912.172104622560	489.702909463590	357.407414968592	888.708110381303	419.798416188523	351.137506703274	800.151626692877	302.476456195789	306.351485874834	856.164251333565	194.906625712684	379.756810884437	1027.234399087571	442.670846595192	576.350765270700	908.497646690772	390.566011178976	631.648475845255	905.919180446718	281.999349623423	580.143314679227	712.834014766795	199.871071289174	542.672631133269	884.319422502338	159.891351994455	589.975097271825	774.663790480654	148.398508337522	619.418035830644	959.915705500108	57.014336000097	623.197354526505	731.662599996943	37.880608228883	431.869320875807	802.774005638328	35.172783971820	347.958836486271	886.703254085958	96.472639408004	370.680764094773	1014.066013866801	45.320320987993	338.580627425555	923.374218978215	1096.150574617318	144.860899143177	1098.719415273781	901.660400833097	142.940988114405	786.924445583978	1102.985911550315	721.716316400015	819.122898582610	843.298478782446	733.871572116206	
